<svg version="1" xmlns="http://www.w3.org/2000/svg" width="682.667" height="682.667" viewBox="0 0 512.000000 512.000000"><path d="M222 1.6c-27.8 4.9-40.3 8.2-59.3 15.6-32.3 12.6-59.9 30.3-85.1 54.8-34.7 33.7-58.3 74.3-70.1 120.5-5.6 21.6-6.5 30.8-6.5 63s.9 41.4 6.5 63C28 398.5 86 464 162.7 493.8 194.2 506 221.3 511 256 511c34.7 0 61.8-5 93.3-17.2 32.3-12.5 59.9-30.3 85.1-54.8 34.7-33.7 58.3-74.3 70.1-120.5 5.6-21.6 6.5-30.8 6.5-63s-.9-41.4-6.5-63C484 112.5 426 47 349.3 17.2c-15-5.8-27.2-9.4-43.8-12.9-11.3-2.4-13.9-2.6-46.5-2.8-19-.2-35.6-.1-37 .1zm56.5 79.7c6.6 1.9 17.2 4.9 23.5 6.7 6.3 1.7 17.4 4.9 24.5 7 7.2 2.1 18.2 5.2 24.5 7 6.3 1.7 14.2 4 17.5 5 3.3 1 11.2 3.2 17.5 5 23.5 6.4 27.2 8.2 22.3 10.8-1 .6-18.9 5.8-39.8 11.7-20.9 5.9-38.3 11.1-38.7 11.4-.4.4 1 7.8 3.2 16.5 4.7 18.4 5 22.6 1.9 22.6-1.8 0-2 .4-1.4 2.7 3.3 13.1 3.1 20.9-.6 31.3-1.6 4.7-3.9 11.3-5.1 14.8-1.5 4.8-2.7 6.6-4.9 7.8-1.9 1-2.9 2.2-2.9 3.8 0 7.6-15.5 38.3-26.1 51.7-2.6 3.3-2.9 4.5-2.9 10.7 0 7 .1 7.1 3.6 9.8 2.8 2.2 11.7 5 40.4 13 20.3 5.6 37.4 10.4 38.1 10.6 2.2.7-19.1 25.9-38 44.9-11.5 11.5-22.8 21.7-29.6 26.8-13.2 9.8-29.9 18.4-41.2 21.2l-8.3 2-8.2-2.1c-24.6-6.3-54.1-28-84.8-62.5-10.5-11.7-24-28.5-24-29.7 0-.4 1.9-1.2 4.3-1.8 7.1-1.9 25.9-7.1 30.7-8.5 2.5-.8 13.2-3.7 23.9-6.6 24.5-6.7 25.1-7.2 25.1-18.7 0-4.5-.5-8.4-1-8.7-.6-.4-3.2-3.9-5.9-7.9-11-16.2-21.5-35.7-22.6-42-.6-2.9-1.6-4.3-4.6-6.2-2.5-1.6-3.9-3.2-3.9-4.5 0-1.2-1.5-6-3.4-10.8-1.9-4.7-4-10.6-4.7-13.1-1.2-4.8-.6-16.9 1.1-23 .9-3.1.7-3.7-1.2-5.2l-2.2-1.6 2.2-12.1c1.2-6.6 3.2-15 4.4-18.7 1.8-5.4 1.9-6.7.8-7.4-.8-.5-6.6-2.3-12.9-4-6.4-1.8-15-4.2-19.1-5.5-4.1-1.3-15.1-4.5-24.4-7-17.8-4.9-21.6-6.3-21.6-7.7 0-1.4 5.3-3.3 21.5-7.8 15.8-4.4 16.1-4.5 18.5-5.9.8-.5 8.7-2.7 17.5-4.9s25.7-6.8 37.5-10.1c31.5-9.1 48.2-13.9 50.5-14.5 5-1.3 17.5.3 29 3.7z"/></svg>